<svg width="28" height="29" viewBox="0 0 28 29" fill="none" xmlns="http://www.w3.org/2000/svg">
<path fill-rule="evenodd" clip-rule="evenodd" d="M11.9869 4.00297C11.4462 4.00297 10.9767 4.32886 10.7702 4.80431C10.3303 5.81723 9.15763 6.2796 8.15087 5.83703C7.14412 5.39446 6.68457 4.21455 7.12444 3.20162C7.94121 1.32079 9.80853 0 11.9869 0C14.9166 0 17.2917 2.38958 17.2917 5.33729C17.2917 8.28499 14.9166 10.6746 11.9869 10.6746H4.69289C3.59424 10.6746 2.70361 9.77848 2.70361 8.67309C2.70361 7.5677 3.59424 6.67161 4.69289 6.67161H11.9869C12.7194 6.67161 13.3131 6.07421 13.3131 5.33729C13.3131 4.60037 12.7194 4.00297 11.9869 4.00297Z" fill="#38BDF8"/>
<path fill-rule="evenodd" clip-rule="evenodd" d="M16.1526 23.2811C16.359 23.7567 16.8286 24.0825 17.3692 24.0825C18.1017 24.0825 18.6954 23.4851 18.6954 22.7482C18.6954 22.0112 18.1017 21.4139 17.3692 21.4139H8.74904C7.65039 21.4139 6.75977 20.5177 6.75977 19.4124C6.75977 18.307 7.65039 17.4109 8.74904 17.4109H17.3692C20.2989 17.4109 22.674 19.8005 22.674 22.7482C22.674 25.6958 20.2989 28.0855 17.3692 28.0855C15.1909 28.0855 13.3236 26.7646 12.5068 24.8839C12.0669 23.8709 12.5264 22.6909 13.5333 22.2485C14.54 21.8059 15.7127 22.2682 16.1526 23.2811Z" fill="#38BDF8"/>
<path fill-rule="evenodd" clip-rule="evenodd" d="M22.5452 9.3079C22.0045 9.3079 21.5349 9.63379 21.3285 10.1092C20.8886 11.1222 19.7159 11.5845 18.7092 11.142C17.7023 10.6994 17.2428 9.51948 17.6827 8.50656C18.4995 6.62572 20.3668 5.30493 22.5452 5.30493C25.4748 5.30493 27.8499 7.69451 27.8499 10.6422C27.8499 13.5899 25.4748 15.9795 22.5452 15.9795H1.98928C0.890627 15.9795 0 15.0834 0 13.978C0 12.8727 0.890627 11.9765 1.98928 11.9765H12.2672H22.5452C23.2776 11.9765 23.8713 11.3792 23.8713 10.6422C23.8713 9.9053 23.2776 9.3079 22.5452 9.3079Z" fill="#FACC15"/>
</svg>
