<svg width="163" height="35" viewBox="0 0 163 35" fill="none" xmlns="http://www.w3.org/2000/svg">
<path d="M46.9843 26.312C45.8483 26.312 44.7803 26.088 43.7803 25.64C42.7803 25.184 41.9003 24.556 41.1403 23.756C40.3883 22.956 39.7963 22.032 39.3643 20.984C38.9403 19.928 38.7283 18.8 38.7283 17.6C38.7283 16.392 38.9403 15.264 39.3643 14.216C39.7963 13.16 40.3883 12.236 41.1403 11.444C41.9003 10.644 42.7803 10.02 43.7803 9.572C44.7803 9.116 45.8483 8.888 46.9843 8.888C48.3443 8.888 49.5963 9.204 50.7403 9.836C51.8843 10.46 52.8323 11.296 53.5843 12.344L50.9683 13.748C50.4963 13.164 49.9083 12.696 49.2043 12.344C48.5083 11.992 47.7683 11.816 46.9843 11.816C46.2483 11.816 45.5563 11.968 44.9083 12.272C44.2603 12.568 43.6923 12.984 43.2043 13.52C42.7163 14.048 42.3363 14.664 42.0643 15.368C41.7923 16.064 41.6563 16.808 41.6563 17.6C41.6563 18.4 41.7923 19.148 42.0643 19.844C42.3443 20.54 42.7283 21.156 43.2163 21.692C43.7043 22.22 44.2683 22.636 44.9083 22.94C45.5563 23.236 46.2483 23.384 46.9843 23.384C47.7843 23.384 48.5283 23.208 49.2163 22.856C49.9123 22.496 50.4963 22.024 50.9683 21.44L53.5843 22.856C52.8323 23.896 51.8843 24.732 50.7403 25.364C49.5963 25.996 48.3443 26.312 46.9843 26.312ZM62.2961 26.312C61.1921 26.312 60.1841 26.028 59.2721 25.46C58.3681 24.892 57.6441 24.132 57.1001 23.18C56.5641 22.22 56.2961 21.16 56.2961 20C56.2961 19.12 56.4521 18.3 56.7641 17.54C57.0761 16.772 57.5041 16.1 58.0481 15.524C58.6001 14.94 59.2401 14.484 59.9681 14.156C60.6961 13.828 61.4721 13.664 62.2961 13.664C63.4001 13.664 64.4041 13.948 65.3081 14.516C66.2201 15.084 66.9441 15.848 67.4801 16.808C68.0241 17.768 68.2961 18.832 68.2961 20C68.2961 20.872 68.1401 21.688 67.8281 22.448C67.5161 23.208 67.0841 23.88 66.5321 24.464C65.9881 25.04 65.3521 25.492 64.6241 25.82C63.9041 26.148 63.1281 26.312 62.2961 26.312ZM62.2961 23.384C62.8801 23.384 63.4041 23.228 63.8681 22.916C64.3321 22.604 64.6961 22.192 64.9601 21.68C65.2321 21.168 65.3681 20.608 65.3681 20C65.3681 19.376 65.2281 18.808 64.9481 18.296C64.6761 17.776 64.3041 17.364 63.8321 17.06C63.3681 16.748 62.8561 16.592 62.2961 16.592C61.7201 16.592 61.2001 16.748 60.7361 17.06C60.2721 17.372 59.9041 17.788 59.6321 18.308C59.3601 18.828 59.2241 19.392 59.2241 20C59.2241 20.632 59.3641 21.204 59.6441 21.716C59.9241 22.228 60.2961 22.636 60.7601 22.94C61.2321 23.236 61.7441 23.384 62.2961 23.384ZM71.7771 26V8H74.7051V26H71.7771ZM84.4821 26.312C83.3781 26.312 82.3701 26.028 81.4581 25.46C80.5541 24.892 79.8301 24.132 79.2861 23.18C78.7501 22.22 78.4821 21.16 78.4821 20C78.4821 19.12 78.6381 18.3 78.9501 17.54C79.2621 16.772 79.6901 16.1 80.2341 15.524C80.7861 14.94 81.4261 14.484 82.1541 14.156C82.8821 13.828 83.6581 13.664 84.4821 13.664C85.5861 13.664 86.5901 13.948 87.4941 14.516C88.4061 15.084 89.1301 15.848 89.6661 16.808C90.2101 17.768 90.4821 18.832 90.4821 20C90.4821 20.872 90.3261 21.688 90.0141 22.448C89.7021 23.208 89.2701 23.88 88.7181 24.464C88.1741 25.04 87.5381 25.492 86.8101 25.82C86.0901 26.148 85.3141 26.312 84.4821 26.312ZM84.4821 23.384C85.0661 23.384 85.5901 23.228 86.0541 22.916C86.5181 22.604 86.8821 22.192 87.1461 21.68C87.4181 21.168 87.5541 20.608 87.5541 20C87.5541 19.376 87.4141 18.808 87.1341 18.296C86.8621 17.776 86.4901 17.364 86.0181 17.06C85.5541 16.748 85.0421 16.592 84.4821 16.592C83.9061 16.592 83.3861 16.748 82.9221 17.06C82.4581 17.372 82.0901 17.788 81.8181 18.308C81.5461 18.828 81.4101 19.392 81.4101 20C81.4101 20.632 81.5501 21.204 81.8301 21.716C82.1101 22.228 82.4821 22.636 82.9461 22.94C83.4181 23.236 83.9301 23.384 84.4821 23.384ZM94.1625 26L94.1505 14H97.0785L97.0905 15.068C97.4985 14.636 97.9865 14.296 98.5545 14.048C99.1225 13.792 99.7345 13.664 100.39 13.664C100.83 13.664 101.27 13.728 101.71 13.856L100.558 16.808C100.254 16.688 99.9505 16.628 99.6465 16.628C99.1745 16.628 98.7425 16.744 98.3505 16.976C97.9665 17.2 97.6585 17.508 97.4265 17.9C97.2025 18.284 97.0905 18.712 97.0905 19.184V26H94.1625ZM111.377 26H108.473L104.465 14H107.333L109.937 21.764L112.529 14H115.421L118.013 21.764L120.617 14H123.485L119.477 26H116.573L113.969 18.2L111.377 26ZM127.071 14H129.999V26H127.071V14ZM128.559 12.452C128.127 12.452 127.763 12.312 127.467 12.032C127.171 11.744 127.023 11.384 127.023 10.952C127.023 10.528 127.171 10.172 127.467 9.884C127.763 9.596 128.123 9.452 128.547 9.452C128.971 9.452 129.327 9.596 129.615 9.884C129.911 10.172 130.059 10.528 130.059 10.952C130.059 11.384 129.915 11.744 129.627 12.032C129.339 12.312 128.983 12.452 128.559 12.452ZM145.582 18.416V26H142.654V19.184C142.654 18.712 142.538 18.284 142.306 17.9C142.074 17.508 141.762 17.2 141.37 16.976C140.986 16.744 140.558 16.628 140.086 16.628C139.614 16.628 139.182 16.744 138.79 16.976C138.406 17.2 138.098 17.508 137.866 17.9C137.642 18.284 137.53 18.712 137.53 19.184V26H134.602L134.59 14H137.518L137.53 15.068C137.938 14.636 138.426 14.296 138.994 14.048C139.562 13.792 140.174 13.664 140.83 13.664C141.702 13.664 142.498 13.88 143.218 14.312C143.938 14.736 144.51 15.308 144.934 16.028C145.366 16.74 145.582 17.536 145.582 18.416ZM158.61 8H161.538V26H158.61V24.5C158.226 25.036 157.742 25.472 157.158 25.808C156.574 26.144 155.898 26.312 155.13 26.312C154.258 26.312 153.442 26.148 152.682 25.82C151.922 25.492 151.25 25.04 150.666 24.464C150.09 23.88 149.638 23.208 149.31 22.448C148.982 21.688 148.818 20.872 148.818 20C148.818 19.128 148.982 18.312 149.31 17.552C149.638 16.792 150.09 16.124 150.666 15.548C151.25 14.964 151.922 14.508 152.682 14.18C153.442 13.852 154.258 13.688 155.13 13.688C155.898 13.688 156.574 13.856 157.158 14.192C157.742 14.52 158.226 14.956 158.61 15.5V8ZM155.166 23.492C155.79 23.492 156.342 23.336 156.822 23.024C157.302 22.712 157.678 22.292 157.95 21.764C158.222 21.228 158.358 20.64 158.358 20C158.358 19.352 158.222 18.764 157.95 18.236C157.678 17.7 157.298 17.276 156.81 16.964C156.33 16.652 155.782 16.496 155.166 16.496C154.55 16.496 153.986 16.656 153.474 16.976C152.97 17.288 152.566 17.708 152.262 18.236C151.966 18.764 151.818 19.352 151.818 20C151.818 20.648 151.97 21.236 152.274 21.764C152.578 22.292 152.982 22.712 153.486 23.024C153.998 23.336 154.558 23.492 155.166 23.492Z" fill="#1A1A1A"/>
<path fill-rule="evenodd" clip-rule="evenodd" d="M11.9869 7.00297C11.4462 7.00297 10.9767 7.32886 10.7702 7.80431C10.3303 8.81723 9.15763 9.2796 8.15087 8.83703C7.14412 8.39446 6.68457 7.21455 7.12444 6.20162C7.94121 4.32079 9.80853 3 11.9869 3C14.9166 3 17.2917 5.38958 17.2917 8.33729C17.2917 11.285 14.9166 13.6746 11.9869 13.6746H4.69289C3.59424 13.6746 2.70361 12.7785 2.70361 11.6731C2.70361 10.5677 3.59424 9.67161 4.69289 9.67161H11.9869C12.7194 9.67161 13.3131 9.07421 13.3131 8.33729C13.3131 7.60037 12.7194 7.00297 11.9869 7.00297Z" fill="#38BDF8"/>
<path fill-rule="evenodd" clip-rule="evenodd" d="M16.1526 26.2811C16.359 26.7567 16.8286 27.0825 17.3692 27.0825C18.1017 27.0825 18.6954 26.4852 18.6954 25.7482C18.6954 25.0113 18.1017 24.4139 17.3692 24.4139H8.74904C7.65039 24.4139 6.75977 23.5178 6.75977 22.4124C6.75977 21.307 7.65039 20.4109 8.74904 20.4109H17.3692C20.2989 20.4109 22.674 22.8006 22.674 25.7482C22.674 28.6959 20.2989 31.0855 17.3692 31.0855C15.1909 31.0855 13.3236 29.7646 12.5068 27.8839C12.0669 26.8709 12.5264 25.691 13.5333 25.2485C14.54 24.8059 15.7127 25.2683 16.1526 26.2811Z" fill="#38BDF8"/>
<path fill-rule="evenodd" clip-rule="evenodd" d="M22.5452 12.3079C22.0045 12.3079 21.5349 12.6338 21.3285 13.1092C20.8886 14.1221 19.7159 14.5845 18.7092 14.1419C17.7023 13.6994 17.2428 12.5194 17.6827 11.5065C18.4995 9.62569 20.3668 8.3049 22.5452 8.3049C25.4748 8.3049 27.8499 10.6945 27.8499 13.6422C27.8499 16.5898 25.4748 18.9795 22.5452 18.9795H1.98928C0.890627 18.9795 0 18.0833 0 16.978C0 15.8726 0.890627 14.9765 1.98928 14.9765H12.2672H22.5452C23.2776 14.9765 23.8713 14.3791 23.8713 13.6422C23.8713 12.9053 23.2776 12.3079 22.5452 12.3079Z" fill="#FACC15"/>
</svg>
